<?xml version="1.0" encoding="UTF-8"?>
<svg id="a" data-name="Layer 1" xmlns="http://www.w3.org/2000/svg" viewBox="0 0 58.38 17.87">
  <defs>
    <style>
      .b {
        fill: #fff;
      }
    </style>
  </defs>
  <path class="b" d="m.56,3.72v10.54c0,.12.1.23.23.23h1.21c.12,0,.23-.1.23-.23v-7s.29-2.63,2.77-2.65,2.77,1.76,2.77,2.1v7.55c0,.12.1.23.23.23h1.15c.12,0,.23-.1.23-.23v-7.23s.15-2.37,2.76-2.58c2.12-.17,2.74,1.65,2.76,2.29.01.58,0,6.32,0,7.52,0,.12.1.22.23.22h1.06c.12,0,.23-.1.23-.23v-7.09c0-.36-.05-.72-.16-1.07-.32-1.03-1.24-2.96-3.54-2.99-2.48-.03-3.4,1.42-3.68,2.02-.04.08-.15.08-.19,0-.26-.59-1.11-2-3.47-2.04-2.98-.05-3.29,2.05-3.29,2.05v-1.45c0-.13-.1-.23-.23-.23l-1.07.02c-.12,0-.22.1-.22.23Z"/>
  <path class="b" d="m19.56,3.48c-.16,0-.29.13-.29.29v7.29s0,3.26,3.98,3.42c0,0,2.9.18,3.9-2.1v1.81c0,.16.13.29.29.29h1.08c.16,0,.29-.13.29-.29V3.77c0-.16-.13-.29-.29-.29h-1.16c-.16,0-.29.13-.29.29v5.56c0,.45-.07.91-.22,1.33-.35.97-1.18,2.5-2.97,2.59-2.65.13-3.15-1.71-3.15-2.23V3.77c0-.16-.13-.29-.29-.29h-.89Z"/>
  <path class="b" d="m37.49,6.39l1.44-.05s-.69-3.03-3.07-3.17h-1.55c-.22,0-.43.02-.64.08-.51.14-1.45.53-2.18,1.54-.2.27-.28.61-.28.95v.68c0,.54.12.98.38,1.34.21.31.54.66,1.01.96.95.6,2.98.79,2.98.79,0,0,2.47.5,1.9,2.24s-2.29,1.45-3.21,1.37-1.81-.61-1.82-2.06h-1.55s-.3,2.66,3,3.5c.12.03.24.04.36.04h1.93s1.83-.01,2.77-2.23c.08-.19.11-.39.11-.59v-.82c0-.6-.21-1.17-.6-1.62s-1.03-.92-2.02-1.21l-2.4-.68s-2.31-.85-.71-2.44c0,0,2.48-1.94,4.16,1.35Z"/>
  <path class="b" d="m41.49,7.39v6.71s-1.84.12-1.81,1.2.56,1.48,1.2,1.5,1.56-.27,1.56-1.85.23-11.77.23-11.77v-.4s.6.98,1.69.91.82-1.1,2.85-1.35h.15v-.67h-1.1s-.39.02-.68.22-.83.6-1.35.47-1.17-1.06-1.39-1.19l-.05-.07h-1.42l.12,6.29Z"/>
  <g>
    <path class="b" d="m46.18,9.53c0,3.66,2.98,6.63,6.63,6.63.5,0,.99-.06,1.46-.17l.21,1.29c-.54.12-1.1.18-1.67.18-4.38,0-7.93-3.55-7.93-7.93s3.55-7.94,7.93-7.94c1.96,0,3.74.71,5.12,1.88l-.86.97c-1.15-.96-2.64-1.55-4.26-1.55-3.65,0-6.63,2.98-6.63,6.64Z"/>
    <path class="b" d="m55.62,12.42l.72,1.08c-.95.84-2.17,1.36-3.53,1.36-2.94,0-5.33-2.39-5.33-5.33s2.39-5.34,5.33-5.34c1.83,0,3.45.93,4.41,2.33l-1.04.79c-.72-1.09-1.96-1.82-3.37-1.82-2.22,0-4.03,1.81-4.03,4.04s1.81,4.03,4.03,4.03c1.09,0,2.08-.44,2.81-1.14Z"/>
    <path class="b" d="m55.14,10.95c-.48.78-1.34,1.31-2.33,1.31-1.5,0-2.73-1.22-2.73-2.73s1.23-2.74,2.73-2.74c.76,0,1.45.32,1.95.82l-1,.85c-.25-.23-.58-.37-.95-.37-.79,0-1.43.65-1.43,1.44s.64,1.43,1.43,1.43c.54,0,1-.29,1.24-.72l1.09.71Z"/>
  </g>
</svg>